PathFileType	4	(X/Y/Z)	2014001\dynamic\2014001_C3_01.trc
DataRate	CameraRate	NumFrames	NumMarkers	Units	OrigDataRate	OrigDataStartFrame	OrigNumFrames
100.000000	100.000000	4	52	mm	100.000000	72	192
Frame#	Time	L_IAS			L_IPS			R_IPS			R_IAS			L_FTC			L_FLE			L_FME			L_FAX			L_TTC			L_FAL			L_TAM			L_FCC			L_FM1			L_FM2			L_FM5			R_FTC			R_FLE			R_FME			R_FAX			R_TTC			R_FAL			R_TAM			R_FCC			R_FM1			R_FM2			R_FM5			CV7			TV10			SXS			SJN			L_SIA			L_SRS			L_SAA			L_SAE			L_HLE			L_HME			L_UOA			L_RSP			L_UHE			L_HM2			L_HM5			R_SIA			R_SRS			R_SAA			R_SAE			R_HLE			R_HME			R_UOA			R_RSP			R_UHE			R_HM2			R_HM5			
		X1	Y1	Z1	X2	Y2	Z2	X3	Y3	Z3	X4	Y4	Z4	X5	Y5	Z5	X6	Y6	Z6	X7	Y7	Z7	X8	Y8	Z8	X9	Y9	Z9	X10	Y10	Z10	X11	Y11	Z11	X12	Y12	Z12	X13	Y13	Z13	X14	Y14	Z14	X15	Y15	Z15	X16	Y16	Z16	X17	Y17	Z17	X18	Y18	Z18	X19	Y19	Z19	X20	Y20	Z20	X21	Y21	Z21	X22	Y22	Z22	X23	Y23	Z23	X24	Y24	Z24	X25	Y25	Z25	X26	Y26	Z26	X27	Y27	Z27	X28	Y28	Z28	X29	Y29	Z29	X30	Y30	Z30	X31	Y31	Z31	X32	Y32	Z32	X33	Y33	Z33	X34	Y34	Z34	X35	Y35	Z35	X36	Y36	Z36	X37	Y37	Z37	X38	Y38	Z38	X39	Y39	Z39	X40	Y40	Z40	X41	Y41	Z41	X42	Y42	Z42	X43	Y43	Z43	X44	Y44	Z44	X45	Y45	Z45	X46	Y46	Z46	X47	Y47	Z47	X48	Y48	Z48	X49	Y49	Z49	X50	Y50	Z50	X51	Y51	Z51	X52	Y52	Z52	

73	0.72	378.5661926269532	845.1772460937505	666.5474243164065	292.0658569335939	894.692504882813	493.1689453125002	201.2644348144532	890.767456054688	495.208679199219	139.4926757812501	863.6034545898442	678.819519042969	432.1734008789065	772.8070678710942	568.673767089844	397.341003417969	438.3289794921877	458.8475646972659	285.3010559082032	414.1897888183596	489.4275512695315	398.7741394042971	391.9043884277346	412.7858886718752	359.7399291992189	343.8763732910157	460.7913818359377	351.4545898437501	116.887794494629	236.7403564453126	268.0759277343751	118.2540283203126	267.473846435547	302.0398559570314	102.3181533813477	184.7732543945313	276.7427368164064	29.89342880249025	345.167694091797	338.838348388672	32.20371246337892	353.7856445312501	379.0368652343751	24.29734611511232	297.0174255371095	73.21254730224612	766.1004028320315	598.2327270507815	107.3319702148438	441.8262939453127	741.7688598632815	226.3783721923829	435.751892089844	752.9920043945315	103.6592483520508	375.5326538085939	742.3572998046877	157.0126953125001	383.7426147460939	805.5022583007817	147.2772979736329	64.43645477294925	776.9614868164067	229.7938842773439	87.23244476318362	812.6108398437505	205.6305084228517	22.04853248596192	740.038024902344	213.0444335937501	38.67797470092775	928.1911010742192	150.9472198486329	46.43615341186525	926.0732421875005	112.1422500610352	25.06564140319826	872.0661621093755	234.8868713378907	1357.079467773438	542.3753051757815	253.708709716797	1129.225219726563	470.1526184082034	244.4223937988282	1122.309204101563	704.428894042969	231.0591278076173	1285.877563476563	667.7708740234377	352.5556945800782	1176.861083984375	479.2683410644534	334.4937744140626	1305.624267578125	506.571228027344	433.4230041503909	1302.985595703125	597.8747558593752	407.2661437988284	1310.508544921875	634.2060546875002	512.7121582031252	1041.530517578125	677.5396728515627	451.6773376464846	991.4480590820317	645.2235107421877	500.9902343750002	991.7778930664067	655.2224121093752	417.4859008789065	882.3240356445317	849.9784545898442	494.3954162597659	859.9780273437505	840.619262695313	404.4342956542971	836.9939575195317	922.5151367187505	486.7867431640627	792.3608398437505	881.1683959960942	146.7753601074219	1165.695068359375	452.8006286621096	156.1544342041016	1288.646606445313	491.551452636719	47.44306564331056	1271.240234375	557.4838867187502	52.20722579956058	1272.89697265625	607.3015136718752	11.13002395629883	979.729125976563	507.442321777344	91.58748626708987	969.8733520507817	495.9242858886721	47.45204162597658	964.6633911132817	481.519470214844	25.78982543945314	756.382507324219	559.7401123046877	-22.31966209411622	765.5146484375002	494.6153259277346	5.623640537261965	662.8614501953127	564.553161621094	-19.10518074035645	690.6296997070315	469.0515136718752	
74	0.73	376.1604919433595	845.9328002929692	679.1831054687502	290.6356201171876	895.4363403320317	505.2301940917971	199.5940399169923	891.7559204101567	507.4848937988284	137.3311309814454	865.4902343750005	691.1524658203127	429.9820861816409	773.0646972656255	581.536071777344	398.1052246093752	438.6296997070315	472.9892883300784	286.0018310546876	412.8684997558596	504.3252563476565	399.4854736328127	393.2934265136721	425.6904296875002	361.5520019531251	343.5698547363282	473.1773376464846	353.147674560547	122.7607116699219	242.7959594726564	270.2491149902345	122.803451538086	274.4781494140626	303.0638732910157	110.7762603759766	191.1707916259766	276.807586669922	30.37229347229005	345.3917236328126	338.9135131835939	31.86837387084962	353.9046325683595	378.8925170898439	25.71760177612306	298.2779235839845	71.06715393066409	767.773620605469	610.7628173828127	106.2431945800782	442.6517333984377	753.1656494140627	225.1456146240236	437.0195617675784	763.875915527344	102.5702743530274	376.2473449707032	752.7712402343752	156.3126678466797	383.4246826171876	815.5944824218755	147.0570373535157	64.47278594970706	779.038452148438	230.0051574707032	86.28345489501956	814.828491210938	205.1335601806642	22.92270278930665	740.429382324219	214.3101654052736	34.38955307006837	929.5006713867192	151.5447082519532	42.88219833374025	928.445190429688	111.4614791870118	23.68435859680176	872.9719238281255	232.0713653564454	1357.801025390625	553.1011962890627	251.3311614990236	1129.666870117188	481.5947570800784	242.3811187744142	1123.6962890625	715.9410400390627	228.9256591796876	1287.177978515625	678.7109375000002	349.8576965332032	1177.503051757813	489.9612731933596	331.7513427734376	1306.322265625	517.040222167969	431.0662536621096	1303.861328125	607.7314453125002	405.251159667969	1311.56298828125	644.2876586914065	510.7580261230471	1041.601318359375	682.8972167968752	449.3547668457034	992.0747070312505	650.421813964844	498.7530212402346	992.3817749023442	659.6854248046877	417.9340515136721	877.5717163085942	852.4223632812505	494.6914062500002	855.7568969726567	841.6701660156255	405.7083129882815	830.1914062500005	923.704467773438	488.0166320800784	787.218627929688	880.6674804687505	143.4945220947266	1166.067626953125	464.9714965820315	153.0284729003907	1289.074584960938	503.1004943847659	44.67095947265626	1271.898559570313	569.9910888671877	49.93324661254886	1273.632690429688	619.7310180664065	8.819952964782718	979.657836914063	522.4045410156252	89.21549987792972	970.0665893554692	509.9367675781252	44.86894989013673	964.7018432617192	496.1511535644534	24.74830055236818	756.6052856445315	574.8084106445315	-24.15328025817873	765.4109497070315	510.4414062500002	5.052144050598146	662.983093261719	580.1318359375002	-21.00759887695313	690.514343261719	484.9582519531252	
75	0.74	373.6917114257814	846.9758300781255	691.6741943359377	289.1064453125001	896.332397460938	517.1798095703127	197.8427276611329	892.8433227539067	519.694519042969	135.0693054199219	867.3654174804692	703.3753662109377	427.718688964844	773.469116210938	594.4143676757815	398.9912719726565	438.7861022949221	488.1192626953127	286.9242553710939	411.405700683594	520.3212890625002	400.3667907714846	394.5872192382815	439.6825256347659	363.523406982422	343.1659240722657	486.6185302734377	354.8635253906251	128.9380035400391	249.9518127441407	272.4294738769532	127.5761947631837	282.5798950195314	304.0894775390626	119.7476119995118	198.7991333007814	276.8550720214845	31.09053611755373	345.9630126953126	338.9408569335939	31.71696090698244	354.3036193847657	378.813934326172	27.7281894683838	300.1079406738282	68.91066741943362	769.4295043945317	623.1079101562502	105.187973022461	443.3003845214846	763.9544677734377	223.962860107422	438.1335754394534	774.356323242188	101.5617294311524	376.8420715332032	762.5296020507815	155.5411834716797	383.0045471191407	825.1166381835942	146.9044494628907	64.68299102783206	780.855834960938	230.2319183349611	85.6211853027344	816.7900390625005	204.6888732910157	23.74876594543458	740.9240722656252	215.4894409179689	31.0227565765381	930.541137695313	152.1090698242188	40.26179122924806	930.503051757813	110.796745300293	22.95543670654298	873.7538452148442	229.2928161621095	1358.704223632813	563.7244873046877	248.8891143798829	1130.278442382813	492.9540710449221	240.3896331787111	1125.306396484375	727.3417968750002	226.8560180664064	1288.702514648438	689.5618286132815	347.1748046875001	1178.320922851563	500.5325317382815	329.0348205566407	1307.170166015625	527.3841552734377	428.7541809082034	1304.94775390625	617.438415527344	403.2972717285159	1312.839965820313	654.2069091796877	508.7060852050784	1041.92138671875	688.0574340820315	446.8500671386721	993.038452148438	655.399841308594	496.3843078613284	993.3188476562505	663.914489746094	418.554870605469	872.7746582031255	854.3305664062505	495.1316223144534	851.5927124023442	842.0144653320317	407.2712707519534	823.1572875976567	924.1510620117192	489.4853515625002	782.0869750976567	879.239135742188	140.1526641845704	1166.63330078125	477.1477661132815	149.9094696044922	1289.685424804688	514.5881958007815	41.9341506958008	1272.8154296875	582.5103759765627	47.74444580078126	1274.647094726563	632.161071777344	6.462683677673343	979.8190917968755	537.6817626953127	86.77292633056643	970.4663085937505	524.1579589843752	42.19578170776369	964.9414062500005	511.0706787109377	23.68517875671387	757.0755615234377	590.3231201171877	-26.08572959899904	765.5415649414065	526.8220825195315	4.512300014495851	663.3692626953127	596.2424316406252	-23.04701805114747	690.6191406250002	501.4620056152346	
76	0.75	371.2193298339845	848.2852172851567	703.9373168945315	287.4483642578126	897.3498535156255	528.9753417968752	195.9940948486329	894.0034790039067	531.792419433594	132.7517547607422	869.163696289063	715.4630126953127	425.4004821777346	774.0001831054692	607.2075805664065	399.9671325683596	438.7738037109377	504.2312622070315	288.0365600585939	409.8408203125002	537.3922119140627	401.402038574219	395.7373962402346	454.8012695312502	365.5774841308595	342.6597290039064	501.1391906738284	356.5511779785157	135.3806762695313	258.2855224609376	274.539520263672	132.5417175292969	291.7988586425782	305.0837402343751	129.1303100585938	207.7122192382814	276.9489135742189	32.11993789672853	347.1156005859376	338.9743957519532	31.84800910949708	355.1952209472657	378.8367309570314	30.42243957519533	302.6823730468751	66.76679992675784	771.0287475585942	635.2503051757815	104.1974105834962	443.7444152832034	774.0588989257817	222.8784027099611	439.0399475097659	784.307006835938	100.6630859375001	377.2814331054689	771.5626831054692	154.7583160400391	382.4524841308595	833.996459960938	146.8477783203126	65.00205230712893	782.391479492188	230.5012359619142	85.17871093750003	818.4643554687505	204.3292236328126	24.47222328186037	741.4744873046877	216.5857849121095	28.49696731567384	931.329956054688	152.6641082763672	38.47754287719728	932.2314453125005	110.2206192016602	22.75058746337891	874.4103393554692	226.5634765625001	1359.765380859375	574.2380371093752	246.3675079345704	1131.042236328125	504.2080383300784	238.4692230224611	1127.090698242188	738.6060791015627	224.8644561767579	1290.406005859375	700.3093872070315	344.4868469238282	1179.289428710938	510.9369201660159	326.3404235839845	1308.142944335938	537.5806274414065	426.495544433594	1306.202270507813	626.9702758789065	401.4140625000002	1314.293090820313	663.9396972656252	506.5658264160159	1042.451171875	693.0606689453127	444.1795959472659	994.3012695312505	660.1892089843752	493.890563964844	994.5501098632817	667.963317871094	419.3389892578127	867.9628295898442	855.7268676757817	495.7176513671877	847.5343627929692	841.7023315429692	409.1105651855471	815.9458618164067	923.8632812500005	491.1729125976565	777.030151367188	876.9199829101567	136.7575073242188	1167.375122070313	489.3022766113284	146.8094787597657	1290.463256835938	525.9991455078127	39.24765396118165	1273.963134765625	595.012878417969	45.64968490600587	1275.911865234375	644.5659790039065	4.065845012664797	980.191040039063	553.236755371094	84.2612228393555	971.0419311523442	538.5584716796877	39.44144821166994	965.3533325195317	526.242614746094	22.60446166992188	757.771179199219	606.290466308594	-28.10805702209474	765.8857421875002	543.7505493164065	3.988989830017092	664.0105590820315	612.9020996093752	-25.22040367126466	690.9177246093752	518.5759277343752	
